<?xml version="1.0" encoding="UTF-8" standalone="no" ?>
<!DOCTYPE svg PUBLIC "-//W3C//DTD SVG 1.1//EN" "http://www.w3.org/Graphics/SVG/1.1/DTD/svg11.dtd">
<svg xmlns="http://www.w3.org/2000/svg" xmlns:xlink="http://www.w3.org/1999/xlink" version="1.1" width="500" height="200" viewBox="0 0 500 200" xml:space="preserve">
<desc>Created with Fabric.js 4.2.0</desc>
<defs>
</defs>
<rect x="0" y="0" width="100%" height="100%" fill="transparent"></rect>
<g transform="matrix(0 0 0 0 0 0)" id="d5f4531c-a39a-46ba-a377-a45e6abe65a1"  >
</g>
<g transform="matrix(1 0 0 1 250 100)" id="cd8a80ba-2309-4440-bf30-3ada9d6da14b"  >
<rect style="stroke: none; stroke-width: 1; stroke-dasharray: none; stroke-linecap: butt; stroke-dashoffset: 0; stroke-linejoin: miter; stroke-miterlimit: 4; fill: rgb(255,255,255); fill-rule: nonzero; opacity: 1; visibility: hidden;" vector-effect="non-scaling-stroke"  x="-250" y="-100" rx="0" ry="0" width="500" height="200" />
</g>
<g transform="matrix(1 0 0 1 250 81.85)" style="" id="da8c17ce-993f-4b6d-b094-6f4177d2a409"  >
		<text xml:space="preserve" font-family="Raleway" font-size="72" font-style="normal" font-weight="900" style="stroke: none; stroke-width: 1; stroke-dasharray: none; stroke-linecap: butt; stroke-dashoffset: 0; stroke-linejoin: miter; stroke-miterlimit: 4; fill: rgb(221,29,120); fill-rule: nonzero; opacity: 1; white-space: pre;" ><tspan x="-204.34" y="22.62" >P</tspan><tspan x="-142.7" y="22.62" >A</tspan><tspan x="-74.16" y="22.62" >N</tspan><tspan x="0.65" y="22.62" >D</tspan><tspan x="72.72" y="22.62" >I</tspan><tspan x="116.06" y="22.62" >T</tspan><tspan x="181.51" y="22.62" >I</tspan></text>
</g>
<g transform="matrix(1 0 0 1 250 148.93)" style="" id="456e233d-aac2-4734-a165-7e1a4bdc2eed"  >
		<text xml:space="preserve" font-family="Raleway" font-size="45" font-style="normal" font-weight="900" style="stroke: none; stroke-width: 1; stroke-dasharray: none; stroke-linecap: butt; stroke-dashoffset: 0; stroke-linejoin: miter; stroke-miterlimit: 4; fill: rgb(0,0,0); fill-rule: nonzero; opacity: 1; white-space: pre;" ><tspan x="-201.4" y="14.14" >M</tspan><tspan x="-146.99" y="14.14" >A</tspan><tspan x="-103.93" y="14.14" >T</tspan><tspan x="-59.87" y="14.14" >R</tspan><tspan x="-13.52" y="14.14" >I</tspan><tspan x="16.72" y="14.14" >M</tspan><tspan x="71.12" y="14.14" >O</tspan><tspan x="121.52" y="14.14" >N</tspan><tspan x="171.43" y="14.14" >Y</tspan></text>
</g>
</svg>